%TF.GenerationSoftware,KiCad,Pcbnew,(6.0.4)*%
%TF.CreationDate,2023-05-30T04:03:16+02:00*%
%TF.ProjectId,Digi-Temp-Sens-OWire,44696769-2d54-4656-9d70-2d53656e732d,rev?*%
%TF.SameCoordinates,Original*%
%TF.FileFunction,Copper,L1,Top*%
%TF.FilePolarity,Positive*%
%FSLAX46Y46*%
G04 Gerber Fmt 4.6, Leading zero omitted, Abs format (unit mm)*
G04 Created by KiCad (PCBNEW (6.0.4)) date 2023-05-30 04:03:16*
%MOMM*%
%LPD*%
G01*
G04 APERTURE LIST*
G04 Aperture macros list*
%AMRoundRect*
0 Rectangle with rounded corners*
0 $1 Rounding radius*
0 $2 $3 $4 $5 $6 $7 $8 $9 X,Y pos of 4 corners*
0 Add a 4 corners polygon primitive as box body*
4,1,4,$2,$3,$4,$5,$6,$7,$8,$9,$2,$3,0*
0 Add four circle primitives for the rounded corners*
1,1,$1+$1,$2,$3*
1,1,$1+$1,$4,$5*
1,1,$1+$1,$6,$7*
1,1,$1+$1,$8,$9*
0 Add four rect primitives between the rounded corners*
20,1,$1+$1,$2,$3,$4,$5,0*
20,1,$1+$1,$4,$5,$6,$7,0*
20,1,$1+$1,$6,$7,$8,$9,0*
20,1,$1+$1,$8,$9,$2,$3,0*%
G04 Aperture macros list end*
%TA.AperFunction,SMDPad,CuDef*%
%ADD10RoundRect,0.237500X0.300000X0.237500X-0.300000X0.237500X-0.300000X-0.237500X0.300000X-0.237500X0*%
%TD*%
%TA.AperFunction,SMDPad,CuDef*%
%ADD11RoundRect,0.250000X0.750000X-0.250000X0.750000X0.250000X-0.750000X0.250000X-0.750000X-0.250000X0*%
%TD*%
%TA.AperFunction,SMDPad,CuDef*%
%ADD12RoundRect,0.237500X-0.300000X-0.237500X0.300000X-0.237500X0.300000X0.237500X-0.300000X0.237500X0*%
%TD*%
%TA.AperFunction,SMDPad,CuDef*%
%ADD13RoundRect,0.100000X0.712500X0.100000X-0.712500X0.100000X-0.712500X-0.100000X0.712500X-0.100000X0*%
%TD*%
%TA.AperFunction,ViaPad*%
%ADD14C,0.800000*%
%TD*%
%TA.AperFunction,Conductor*%
%ADD15C,0.300000*%
%TD*%
G04 APERTURE END LIST*
D10*
%TO.P,C2,1*%
%TO.N,+5V*%
X108862500Y-91750000D03*
%TO.P,C2,2*%
%TO.N,GND*%
X107137500Y-91750000D03*
%TD*%
D11*
%TO.P,TP2,1,1*%
%TO.N,/OW*%
X117000000Y-92500000D03*
%TD*%
D12*
%TO.P,C1,1*%
%TO.N,+5V*%
X103637500Y-91750000D03*
%TO.P,C1,2*%
%TO.N,GND*%
X105362500Y-91750000D03*
%TD*%
D11*
%TO.P,TP1,1,1*%
%TO.N,+5V*%
X122000000Y-91000000D03*
%TD*%
D13*
%TO.P,U1,1,DQ*%
%TO.N,/OW*%
X100612500Y-92725000D03*
%TO.P,U1,2,NC*%
%TO.N,unconnected-(U1-Pad2)*%
X100612500Y-92075000D03*
%TO.P,U1,3,NC*%
%TO.N,unconnected-(U1-Pad3)*%
X100612500Y-91425000D03*
%TO.P,U1,4,GND*%
%TO.N,GND*%
X100612500Y-90775000D03*
%TO.P,U1,5,NC*%
%TO.N,unconnected-(U1-Pad5)*%
X96387500Y-90775000D03*
%TO.P,U1,6,NC*%
%TO.N,unconnected-(U1-Pad6)*%
X96387500Y-91425000D03*
%TO.P,U1,7,NC*%
%TO.N,unconnected-(U1-Pad7)*%
X96387500Y-92075000D03*
%TO.P,U1,8,VDD*%
%TO.N,+5V*%
X96387500Y-92725000D03*
%TD*%
D11*
%TO.P,TP3,1,1*%
%TO.N,GND*%
X112000000Y-91000000D03*
%TD*%
D14*
%TO.N,+5V*%
X110250000Y-91750000D03*
X98000000Y-92500000D03*
X120000000Y-91000000D03*
X102250000Y-91750000D03*
%TD*%
D15*
%TO.N,+5V*%
X97775000Y-92725000D02*
X96387500Y-92725000D01*
X120000000Y-91000000D02*
X122000000Y-91000000D01*
X103637500Y-91750000D02*
X102250000Y-91750000D01*
X98000000Y-92500000D02*
X97775000Y-92725000D01*
X108862500Y-91750000D02*
X110250000Y-91750000D01*
%TO.N,GND*%
X104387500Y-90775000D02*
X105362500Y-91750000D01*
X107137500Y-91750000D02*
X107962020Y-90925480D01*
X100612500Y-90775000D02*
X104387500Y-90775000D01*
X107962020Y-90925480D02*
X111925480Y-90925480D01*
X111925480Y-90925480D02*
X112000000Y-91000000D01*
X105362500Y-91750000D02*
X107137500Y-91750000D01*
%TO.N,/OW*%
X117000000Y-92500000D02*
X114250000Y-92500000D01*
X113750000Y-93000000D02*
X102500000Y-93000000D01*
X114250000Y-92500000D02*
X113750000Y-93000000D01*
X102500000Y-93000000D02*
X102225000Y-92725000D01*
X102225000Y-92725000D02*
X100612500Y-92725000D01*
%TD*%
M02*
